ffmpeg started on 2026-04-01 at 12:06:18
Report written to "D:\Convert\FFMetrics\reports\ssim_report-6.txt"
Log level: 32
Command line:
ffmpeg -hide_banner -nostdin -r 24000/1001 -i "F:\\Convert\\files\\[DC] Make Heroine ga Oosugiru - 07_Telegram_HEVC(280).mkv" -r 24000/1001 -i "F:\\Convert\\files\\[DC] Make Heroine ga Oosugiru - 07_Telegram.mp4" -lavfi "[0:v]settb=AVTB,setpts=PTS-STARTPTS,format=pix_fmts=yuv420p10le,fps=24000/1001,scale=1920:1080:flags=lanczos:param0=3:out_range=limited:out_color_matrix=bt709:out_chroma_loc=left,setsar=1/1,setdar=(1920/1080)*(1/1),colorspace=format=yuv420p10:range=tv:primaries=bt709:trc=bt709:space=bt709:fast=0[main];[1:v]settb=AVTB,setpts=PTS-STARTPTS,format=pix_fmts=yuv420p,fps=24000/1001,scale=1920:1080:flags=lanczos:param0=3:out_range=limited:out_color_matrix=bt709:out_chroma_loc=left,setsar=1/1,setdar=(1920/1080)*(1/1),colorspace=format=yuv420p:range=tv:primaries=bt709:trc=bt709:space=bt709:fast=0[ref];[main][ref]ssim=eof_action=endall:stats_file='D\\:/Convert/FFMetrics/logs/ssim_logfile-6.txt'" -f null -
Input #0, matroska,webm, from 'F:\Convert\files\[DC] Make Heroine ga Oosugiru - 07_Telegram_HEVC(280).mkv':
  Metadata:
    COMPATIBLE_BRANDS: isomiso2avc1mp41
    MAJOR_BRAND     : isom
    MINOR_VERSION   : 512
    ENCODER         : Lavf61.7.100
  Duration: 00:24:06.79, start: -0.021000, bitrate: 934 kb/s
  Stream #0:0: Video: hevc (Main 10), yuv420p10le(tv, bt709, progressive), 1920x1080 [SAR 1:1 DAR 16:9], 23.98 fps, 23.98 tbr, 1k tbn (default)
      Metadata:
        HANDLER_NAME    : VideoHandler
        VENDOR_ID       : [0][0][0][0]
        ENCODER         : Lavc61.19.100 libx265
        BPS             : 737144
        DURATION        : 00:24:06.569708333
        NUMBER_OF_FRAMES: 34683
        NUMBER_OF_BYTES : 133291345
        _STATISTICS_WRITING_APP: mkvpropedit v94.0 ('Initiate') 64-bit
        _STATISTICS_WRITING_DATE_UTC: 2026-03-30 14:36:02
        _STATISTICS_TAGS: BPS DURATION NUMBER_OF_FRAMES NUMBER_OF_BYTES
  Stream #0:1: Audio: aac (LC), 48000 Hz, stereo, fltp (default)
      Metadata:
        HANDLER_NAME    : SoundHandler
        VENDOR_ID       : [0][0][0][0]
        ENCODER         : Lavc61.19.100 aac
        BPS             : 193194
        DURATION        : 00:24:06.784000000
        NUMBER_OF_FRAMES: 67819
        NUMBER_OF_BYTES : 34938755
        _STATISTICS_WRITING_APP: mkvpropedit v94.0 ('Initiate') 64-bit
        _STATISTICS_WRITING_DATE_UTC: 2026-03-30 14:36:02
        _STATISTICS_TAGS: BPS DURATION NUMBER_OF_FRAMES NUMBER_OF_BYTES
Input #1, mov,mp4,m4a,3gp,3g2,mj2, from 'F:\Convert\files\[DC] Make Heroine ga Oosugiru - 07_Telegram.mp4':
  Metadata:
    major_brand     : isom
    minor_version   : 512
    compatible_brands: isomiso2avc1mp41
    encoder         : Lavf60.16.100
  Duration: 00:24:06.74, start: 0.000000, bitrate: 3764 kb/s
  Stream #1:0[0x1](und): Video: h264 (High) (avc1 / 0x31637661), yuv420p(tv, bt709, progressive), 1920x1080 [SAR 1:1 DAR 16:9], 3616 kb/s, 23.98 fps, 23.98 tbr, 24k tbn (default)
      Metadata:
        handler_name    : VideoHandler
        vendor_id       : [0][0][0][0]
        encoder         : Lavc60.31.102 h264_qsv
  Stream #1:1[0x2](und): Audio: aac (HE-AACv2) (mp4a / 0x6134706D), 48000 Hz, stereo, fltp, 144 kb/s (default)
      Metadata:
        handler_name    : SoundHandler
        vendor_id       : [0][0][0][0]
Stream mapping:
  Stream #0:0 (hevc) -> settb:default
  Stream #1:0 (h264) -> settb:default
  ssim:default -> Stream #0:0 (wrapped_avframe)
  Stream #0:1 -> #0:1 (aac (native) -> pcm_s16le (native))
Output #0, null, to 'pipe:':
  Metadata:
    COMPATIBLE_BRANDS: isomiso2avc1mp41
    MAJOR_BRAND     : isom
    MINOR_VERSION   : 512
    encoder         : Lavf61.7.100
  Stream #0:0: Video: wrapped_avframe, yuv420p10le(tv, bt709, progressive), 1920x1080 [SAR 1:1 DAR 16:9], q=2-31, 200 kb/s, 23.98 fps, 23.98 tbn
      Metadata:
        encoder         : Lavc61.19.100 wrapped_avframe
  Stream #0:1: Audio: pcm_s16le, 48000 Hz, stereo, s16, 1536 kb/s (default)
      Metadata:
        HANDLER_NAME    : SoundHandler
        VENDOR_ID       : [0][0][0][0]
        _STATISTICS_TAGS: BPS DURATION NUMBER_OF_FRAMES NUMBER_OF_BYTES
        BPS             : 193194
        DURATION        : 00:24:06.784000000
        NUMBER_OF_FRAMES: 67819
        NUMBER_OF_BYTES : 34938755
        _STATISTICS_WRITING_APP: mkvpropedit v94.0 ('Initiate') 64-bit
        _STATISTICS_WRITING_DATE_UTC: 2026-03-30 14:36:02
        encoder         : Lavc61.19.100 pcm_s16le
frame=  114 fps=0.0 q=-0.0 size=N/A time=00:00:04.75 bitrate=N/A speed=9.26x    frame=  293 fps=286 q=-0.0 size=N/A time=00:00:12.22 bitrate=N/A speed=11.9x    frame=  480 fps=313 q=-0.0 size=N/A time=00:00:20.02 bitrate=N/A speed=  13x    frame=  666 fps=323 q=-0.0 size=N/A time=00:00:27.77 bitrate=N/A speed=13.5x    frame=  847 fps=329 q=-0.0 size=N/A time=00:00:35.32 bitrate=N/A speed=13.7x    frame=  984 fps=319 q=-0.0 size=N/A time=00:00:41.04 bitrate=N/A speed=13.3x    frame= 1146 fps=317 q=-0.0 size=N/A time=00:00:47.79 bitrate=N/A speed=13.2x    frame= 1307 fps=317 q=-0.0 size=N/A time=00:00:54.51 bitrate=N/A speed=13.2x    frame= 1465 fps=316 q=-0.0 size=N/A time=00:01:01.10 bitrate=N/A speed=13.2x    frame= 1609 fps=313 q=-0.0 size=N/A time=00:01:07.10 bitrate=N/A speed=  13x    frame= 1762 fps=311 q=-0.0 size=N/A time=00:01:13.49 bitrate=N/A speed=  13x    frame= 1926 fps=311 q=-0.0 size=N/A time=00:01:20.33 bitrate=N/A speed=  13x    frame= 2064 fps=308 q=-0.0 size=N/A time=00:01:26.08 bitrate=N/A speed=12.8x    frame= 2195 fps=304 q=-0.0 size=N/A time=00:01:31.54 bitrate=N/A speed=12.7x    frame= 2352 fps=304 q=-0.0 size=N/A time=00:01:38.09 bitrate=N/A speed=12.7x    frame= 2485 fps=301 q=-0.0 size=N/A time=00:01:43.64 bitrate=N/A speed=12.6x    frame= 2638 fps=301 q=-0.0 size=N/A time=00:01:50.02 bitrate=N/A speed=12.6x    frame= 2810 fps=303 q=-0.0 size=N/A time=00:01:57.20 bitrate=N/A speed=12.6x    frame= 2975 fps=304 q=-0.0 size=N/A time=00:02:04.08 bitrate=N/A speed=12.7x    frame= 3155 fps=306 q=-0.0 size=N/A time=00:02:11.58 bitrate=N/A speed=12.8x    frame= 3340 fps=308 q=-0.0 size=N/A time=00:02:19.30 bitrate=N/A speed=12.9x    frame= 3528 fps=311 q=-0.0 size=N/A time=00:02:27.14 bitrate=N/A speed=  13x    frame= 3705 fps=313 q=-0.0 size=N/A time=00:02:34.52 bitrate=N/A speed=  13x    frame= 3882 fps=314 q=-0.0 size=N/A time=00:02:41.91 bitrate=N/A speed=13.1x    frame= 4061 fps=315 q=-0.0 size=N/A time=00:02:49.37 bitrate=N/A speed=13.1x    frame= 4242 fps=316 q=-0.0 size=N/A time=00:02:56.92 bitrate=N/A speed=13.2x    frame= 4419 fps=318 q=-0.0 size=N/A time=00:03:04.30 bitrate=N/A speed=13.2x    frame= 4605 fps=319 q=-0.0 size=N/A time=00:03:12.06 bitrate=N/A speed=13.3x    frame= 4790 fps=320 q=-0.0 size=N/A time=00:03:19.78 bitrate=N/A speed=13.4x    frame= 4959 fps=321 q=-0.0 size=N/A time=00:03:26.83 bitrate=N/A speed=13.4x    frame= 5140 fps=322 q=-0.0 size=N/A time=00:03:34.38 bitrate=N/A speed=13.4x    frame= 5318 fps=323 q=-0.0 size=N/A time=00:03:41.80 bitrate=N/A speed=13.5x    frame= 5497 fps=323 q=-0.0 size=N/A time=00:03:49.27 bitrate=N/A speed=13.5x    frame= 5671 fps=324 q=-0.0 size=N/A time=00:03:56.52 bitrate=N/A speed=13.5x    frame= 5842 fps=324 q=-0.0 size=N/A time=00:04:03.66 bitrate=N/A speed=13.5x    frame= 6013 fps=324 q=-0.0 size=N/A time=00:04:10.79 bitrate=N/A speed=13.5x    frame= 6185 fps=324 q=-0.0 size=N/A time=00:04:17.96 bitrate=N/A speed=13.5x    frame= 6364 fps=325 q=-0.0 size=N/A time=00:04:25.43 bitrate=N/A speed=13.6x    frame= 6550 fps=326 q=-0.0 size=N/A time=00:04:33.18 bitrate=N/A speed=13.6x    frame= 6729 fps=326 q=-0.0 size=N/A time=00:04:40.65 bitrate=N/A speed=13.6x    frame= 6915 fps=327 q=-0.0 size=N/A time=00:04:48.41 bitrate=N/A speed=13.6x    frame= 7087 fps=327 q=-0.0 size=N/A time=00:04:55.58 bitrate=N/A speed=13.6x    frame= 7265 fps=328 q=-0.0 size=N/A time=00:05:03.01 bitrate=N/A speed=13.7x    frame= 7435 fps=327 q=-0.0 size=N/A time=00:05:10.10 bitrate=N/A speed=13.7x    frame= 7611 fps=328 q=-0.0 size=N/A time=00:05:17.44 bitrate=N/A speed=13.7x    frame= 7783 fps=328 q=-0.0 size=N/A time=00:05:24.61 bitrate=N/A speed=13.7x    frame= 7957 fps=328 q=-0.0 size=N/A time=00:05:31.87 bitrate=N/A speed=13.7x    frame= 8134 fps=328 q=-0.0 size=N/A time=00:05:39.25 bitrate=N/A speed=13.7x    frame= 8303 fps=328 q=-0.0 size=N/A time=00:05:46.30 bitrate=N/A speed=13.7x    frame= 8474 fps=329 q=-0.0 size=N/A time=00:05:53.43 bitrate=N/A speed=13.7x    frame= 8655 fps=329 q=-0.0 size=N/A time=00:06:00.98 bitrate=N/A speed=13.7x    frame= 8838 fps=329 q=-0.0 size=N/A time=00:06:08.61 bitrate=N/A speed=13.7x    frame= 9004 fps=329 q=-0.0 size=N/A time=00:06:15.54 bitrate=N/A speed=13.7x    frame= 9180 fps=330 q=-0.0 size=N/A time=00:06:22.88 bitrate=N/A speed=13.7x    frame= 9352 fps=330 q=-0.0 size=N/A time=00:06:30.05 bitrate=N/A speed=13.8x    frame= 9531 fps=330 q=-0.0 size=N/A time=00:06:37.52 bitrate=N/A speed=13.8x    frame= 9701 fps=330 q=-0.0 size=N/A time=00:06:44.61 bitrate=N/A speed=13.8x    frame= 9879 fps=330 q=-0.0 size=N/A time=00:06:52.03 bitrate=N/A speed=13.8x    frame=10047 fps=330 q=-0.0 size=N/A time=00:06:59.04 bitrate=N/A speed=13.8x    frame=10215 fps=330 q=-0.0 size=N/A time=00:07:06.05 bitrate=N/A speed=13.8x    frame=10384 fps=330 q=-0.0 size=N/A time=00:07:13.09 bitrate=N/A speed=13.8x    frame=10549 fps=330 q=-0.0 size=N/A time=00:07:19.98 bitrate=N/A speed=13.8x    frame=10728 fps=330 q=-0.0 size=N/A time=00:07:27.44 bitrate=N/A speed=13.8x    frame=10910 fps=330 q=-0.0 size=N/A time=00:07:35.03 bitrate=N/A speed=13.8x    frame=11079 fps=330 q=-0.0 size=N/A time=00:07:42.08 bitrate=N/A speed=13.8x    frame=11245 fps=330 q=-0.0 size=N/A time=00:07:49.01 bitrate=N/A speed=13.8x    frame=11434 fps=331 q=-0.0 size=N/A time=00:07:56.89 bitrate=N/A speed=13.8x    frame=11610 fps=331 q=-0.0 size=N/A time=00:08:04.23 bitrate=N/A speed=13.8x    frame=11788 fps=331 q=-0.0 size=N/A time=00:08:11.65 bitrate=N/A speed=13.8x    frame=11970 fps=331 q=-0.0 size=N/A time=00:08:19.24 bitrate=N/A speed=13.8x    frame=12148 fps=332 q=-0.0 size=N/A time=00:08:26.67 bitrate=N/A speed=13.8x    frame=12327 fps=332 q=-0.0 size=N/A time=00:08:34.13 bitrate=N/A speed=13.8x    frame=12508 fps=332 q=-0.0 size=N/A time=00:08:41.68 bitrate=N/A speed=13.9x    frame=12685 fps=332 q=-0.0 size=N/A time=00:08:49.07 bitrate=N/A speed=13.9x    frame=12866 fps=333 q=-0.0 size=N/A time=00:08:56.61 bitrate=N/A speed=13.9x    frame=13044 fps=333 q=-0.0 size=N/A time=00:09:04.04 bitrate=N/A speed=13.9x    frame=13229 fps=333 q=-0.0 size=N/A time=00:09:11.75 bitrate=N/A speed=13.9x    frame=13412 fps=333 q=-0.0 size=N/A time=00:09:19.39 bitrate=N/A speed=13.9x    frame=13590 fps=334 q=-0.0 size=N/A time=00:09:26.81 bitrate=N/A speed=13.9x    frame=13751 fps=333 q=-0.0 size=N/A time=00:09:33.53 bitrate=N/A speed=13.9x    frame=13937 fps=334 q=-0.0 size=N/A time=00:09:41.28 bitrate=N/A speed=13.9x    frame=14106 fps=334 q=-0.0 size=N/A time=00:09:48.33 bitrate=N/A speed=13.9x    frame=14282 fps=334 q=-0.0 size=N/A time=00:09:55.67 bitrate=N/A speed=13.9x    frame=14447 fps=334 q=-0.0 size=N/A time=00:10:02.56 bitrate=N/A speed=13.9x    frame=14635 fps=334 q=-0.0 size=N/A time=00:10:10.40 bitrate=N/A speed=13.9x    frame=14807 fps=334 q=-0.0 size=N/A time=00:10:17.57 bitrate=N/A speed=13.9x    frame=14965 fps=334 q=-0.0 size=N/A time=00:10:24.16 bitrate=N/A speed=13.9x    frame=15129 fps=333 q=-0.0 size=N/A time=00:10:31.00 bitrate=N/A speed=13.9x    frame=15301 fps=333 q=-0.0 size=N/A time=00:10:38.17 bitrate=N/A speed=13.9x    frame=15476 fps=333 q=-0.0 size=N/A time=00:10:45.47 bitrate=N/A speed=13.9x    frame=15661 fps=334 q=-0.0 size=N/A time=00:10:53.19 bitrate=N/A speed=13.9x    frame=15840 fps=334 q=-0.0 size=N/A time=00:11:00.66 bitrate=N/A speed=13.9x    frame=16026 fps=334 q=-0.0 size=N/A time=00:11:08.41 bitrate=N/A speed=13.9x    frame=16207 fps=334 q=-0.0 size=N/A time=00:11:15.96 bitrate=N/A speed=13.9x    frame=16390 fps=335 q=-0.0 size=N/A time=00:11:23.59 bitrate=N/A speed=  14x    frame=16565 fps=335 q=-0.0 size=N/A time=00:11:30.89 bitrate=N/A speed=  14x    frame=16748 fps=335 q=-0.0 size=N/A time=00:11:38.53 bitrate=N/A speed=  14x    frame=16933 fps=335 q=-0.0 size=N/A time=00:11:46.24 bitrate=N/A speed=  14x    frame=17112 fps=335 q=-0.0 size=N/A time=00:11:53.71 bitrate=N/A speed=  14x    frame=17299 fps=335 q=-0.0 size=N/A time=00:12:01.51 bitrate=N/A speed=  14x    frame=17486 fps=336 q=-0.0 size=N/A time=00:12:09.31 bitrate=N/A speed=  14x    frame=17659 fps=336 q=-0.0 size=N/A time=00:12:16.52 bitrate=N/A speed=  14x    frame=17837 fps=336 q=-0.0 size=N/A time=00:12:23.95 bitrate=N/A speed=  14x    frame=18021 fps=336 q=-0.0 size=N/A time=00:12:31.62 bitrate=N/A speed=  14x    frame=18200 fps=336 q=-0.0 size=N/A time=00:12:39.09 bitrate=N/A speed=  14x    frame=18373 fps=336 q=-0.0 size=N/A time=00:12:46.30 bitrate=N/A speed=  14x    frame=18555 fps=336 q=-0.0 size=N/A time=00:12:53.89 bitrate=N/A speed=  14x    frame=18741 fps=336 q=-0.0 size=N/A time=00:13:01.65 bitrate=N/A speed=  14x    frame=18917 fps=336 q=-0.0 size=N/A time=00:13:08.99 bitrate=N/A speed=  14x    frame=19094 fps=337 q=-0.0 size=N/A time=00:13:16.37 bitrate=N/A speed=  14x    frame=19281 fps=337 q=-0.0 size=N/A time=00:13:24.17 bitrate=N/A speed=  14x    frame=19462 fps=337 q=-0.0 size=N/A time=00:13:31.72 bitrate=N/A speed=  14x    frame=19639 fps=337 q=-0.0 size=N/A time=00:13:39.10 bitrate=N/A speed=14.1x    frame=19821 fps=337 q=-0.0 size=N/A time=00:13:46.70 bitrate=N/A speed=14.1x    frame=20002 fps=337 q=-0.0 size=N/A time=00:13:54.25 bitrate=N/A speed=14.1x    frame=20188 fps=337 q=-0.0 size=N/A time=00:14:02.00 bitrate=N/A speed=14.1x    frame=20367 fps=337 q=-0.0 size=N/A time=00:14:09.47 bitrate=N/A speed=14.1x    frame=20543 fps=338 q=-0.0 size=N/A time=00:14:16.81 bitrate=N/A speed=14.1x    frame=20717 fps=338 q=-0.0 size=N/A time=00:14:24.07 bitrate=N/A speed=14.1x    frame=20905 fps=338 q=-0.0 size=N/A time=00:14:31.91 bitrate=N/A speed=14.1x    frame=21089 fps=338 q=-0.0 size=N/A time=00:14:39.58 bitrate=N/A speed=14.1x    frame=21267 fps=338 q=-0.0 size=N/A time=00:14:47.01 bitrate=N/A speed=14.1x    frame=21448 fps=338 q=-0.0 size=N/A time=00:14:54.56 bitrate=N/A speed=14.1x    frame=21623 fps=338 q=-0.0 size=N/A time=00:15:01.85 bitrate=N/A speed=14.1x    frame=21802 fps=338 q=-0.0 size=N/A time=00:15:09.32 bitrate=N/A speed=14.1x    frame=21980 fps=338 q=-0.0 size=N/A time=00:15:16.74 bitrate=N/A speed=14.1x    frame=22164 fps=338 q=-0.0 size=N/A time=00:15:24.42 bitrate=N/A speed=14.1x    frame=22348 fps=338 q=-0.0 size=N/A time=00:15:32.09 bitrate=N/A speed=14.1x    frame=22524 fps=338 q=-0.0 size=N/A time=00:15:39.43 bitrate=N/A speed=14.1x    frame=22702 fps=339 q=-0.0 size=N/A time=00:15:46.86 bitrate=N/A speed=14.1x    frame=22890 fps=339 q=-0.0 size=N/A time=00:15:54.70 bitrate=N/A speed=14.1x    frame=23067 fps=339 q=-0.0 size=N/A time=00:16:02.08 bitrate=N/A speed=14.1x    frame=23248 fps=339 q=-0.0 size=N/A time=00:16:09.63 bitrate=N/A speed=14.1x    frame=23421 fps=339 q=-0.0 size=N/A time=00:16:16.85 bitrate=N/A speed=14.1x    frame=23585 fps=339 q=-0.0 size=N/A time=00:16:23.69 bitrate=N/A speed=14.1x    frame=23759 fps=339 q=-0.0 size=N/A time=00:16:30.94 bitrate=N/A speed=14.1x    frame=23947 fps=339 q=-0.0 size=N/A time=00:16:38.78 bitrate=N/A speed=14.1x    frame=24132 fps=339 q=-0.0 size=N/A time=00:16:46.50 bitrate=N/A speed=14.1x    frame=24298 fps=339 q=-0.0 size=N/A time=00:16:53.42 bitrate=N/A speed=14.1x    frame=24479 fps=339 q=-0.0 size=N/A time=00:17:00.97 bitrate=N/A speed=14.1x    frame=24655 fps=339 q=-0.0 size=N/A time=00:17:08.31 bitrate=N/A speed=14.1x    frame=24833 fps=339 q=-0.0 size=N/A time=00:17:15.74 bitrate=N/A speed=14.1x    frame=25011 fps=339 q=-0.0 size=N/A time=00:17:23.16 bitrate=N/A speed=14.1x    frame=25197 fps=339 q=-0.0 size=N/A time=00:17:30.92 bitrate=N/A speed=14.1x    frame=25376 fps=339 q=-0.0 size=N/A time=00:17:38.39 bitrate=N/A speed=14.1x    frame=25558 fps=339 q=-0.0 size=N/A time=00:17:45.98 bitrate=N/A speed=14.1x    frame=25737 fps=339 q=-0.0 size=N/A time=00:17:53.44 bitrate=N/A speed=14.1x    frame=25920 fps=339 q=-0.0 size=N/A time=00:18:01.08 bitrate=N/A speed=14.2x    frame=26096 fps=339 q=-0.0 size=N/A time=00:18:08.42 bitrate=N/A speed=14.2x    frame=26277 fps=339 q=-0.0 size=N/A time=00:18:15.96 bitrate=N/A speed=14.2x    frame=26462 fps=340 q=-0.0 size=N/A time=00:18:23.68 bitrate=N/A speed=14.2x    frame=26643 fps=340 q=-0.0 size=N/A time=00:18:31.23 bitrate=N/A speed=14.2x    frame=26817 fps=340 q=-0.0 size=N/A time=00:18:38.49 bitrate=N/A speed=14.2x    frame=26995 fps=340 q=-0.0 size=N/A time=00:18:45.91 bitrate=N/A speed=14.2x    frame=27173 fps=340 q=-0.0 size=N/A time=00:18:53.34 bitrate=N/A speed=14.2x    frame=27352 fps=340 q=-0.0 size=N/A time=00:19:00.80 bitrate=N/A speed=14.2x    frame=27534 fps=340 q=-0.0 size=N/A time=00:19:08.39 bitrate=N/A speed=14.2x    frame=27715 fps=340 q=-0.0 size=N/A time=00:19:15.94 bitrate=N/A speed=14.2x    frame=27898 fps=340 q=-0.0 size=N/A time=00:19:23.57 bitrate=N/A speed=14.2x    frame=28076 fps=340 q=-0.0 size=N/A time=00:19:31.00 bitrate=N/A speed=14.2x    frame=28247 fps=340 q=-0.0 size=N/A time=00:19:38.13 bitrate=N/A speed=14.2x    frame=28418 fps=340 q=-0.0 size=N/A time=00:19:45.26 bitrate=N/A speed=14.2x    frame=28608 fps=340 q=-0.0 size=N/A time=00:19:53.19 bitrate=N/A speed=14.2x    frame=28773 fps=340 q=-0.0 size=N/A time=00:20:00.07 bitrate=N/A speed=14.2x    frame=28943 fps=340 q=-0.0 size=N/A time=00:20:07.16 bitrate=N/A speed=14.2x    frame=29103 fps=340 q=-0.0 size=N/A time=00:20:13.83 bitrate=N/A speed=14.2x    frame=29272 fps=340 q=-0.0 size=N/A time=00:20:20.88 bitrate=N/A speed=14.2x    frame=29445 fps=340 q=-0.0 size=N/A time=00:20:28.10 bitrate=N/A speed=14.2x    frame=29606 fps=339 q=-0.0 size=N/A time=00:20:34.81 bitrate=N/A speed=14.2x    frame=29770 fps=339 q=-0.0 size=N/A time=00:20:41.65 bitrate=N/A speed=14.2x    frame=29942 fps=339 q=-0.0 size=N/A time=00:20:48.83 bitrate=N/A speed=14.2x    frame=30107 fps=339 q=-0.0 size=N/A time=00:20:55.71 bitrate=N/A speed=14.1x    frame=30277 fps=339 q=-0.0 size=N/A time=00:21:02.80 bitrate=N/A speed=14.1x    frame=30448 fps=339 q=-0.0 size=N/A time=00:21:09.93 bitrate=N/A speed=14.1x    frame=30627 fps=339 q=-0.0 size=N/A time=00:21:17.40 bitrate=N/A speed=14.1x    frame=30808 fps=339 q=-0.0 size=N/A time=00:21:24.95 bitrate=N/A speed=14.1x    frame=30985 fps=339 q=-0.0 size=N/A time=00:21:32.33 bitrate=N/A speed=14.1x    frame=31170 fps=339 q=-0.0 size=N/A time=00:21:40.04 bitrate=N/A speed=14.2x    frame=31338 fps=339 q=-0.0 size=N/A time=00:21:47.05 bitrate=N/A speed=14.2x    frame=31517 fps=339 q=-0.0 size=N/A time=00:21:54.52 bitrate=N/A speed=14.2x    frame=31703 fps=339 q=-0.0 size=N/A time=00:22:02.27 bitrate=N/A speed=14.2x    frame=31869 fps=339 q=-0.0 size=N/A time=00:22:09.20 bitrate=N/A speed=14.2x    frame=32035 fps=339 q=-0.0 size=N/A time=00:22:16.12 bitrate=N/A speed=14.1x    frame=32208 fps=339 q=-0.0 size=N/A time=00:22:23.34 bitrate=N/A speed=14.1x    frame=32383 fps=339 q=-0.0 size=N/A time=00:22:30.64 bitrate=N/A speed=14.1x    frame=32561 fps=339 q=-0.0 size=N/A time=00:22:38.06 bitrate=N/A speed=14.1x    frame=32706 fps=339 q=-0.0 size=N/A time=00:22:44.11 bitrate=N/A speed=14.1x    frame=32866 fps=339 q=-0.0 size=N/A time=00:22:50.78 bitrate=N/A speed=14.1x    frame=33046 fps=339 q=-0.0 size=N/A time=00:22:58.29 bitrate=N/A speed=14.1x    frame=33222 fps=339 q=-0.0 size=N/A time=00:23:05.63 bitrate=N/A speed=14.1x    frame=33400 fps=339 q=-0.0 size=N/A time=00:23:13.05 bitrate=N/A speed=14.1x    frame=33554 fps=339 q=-0.0 size=N/A time=00:23:19.48 bitrate=N/A speed=14.1x    frame=33706 fps=338 q=-0.0 size=N/A time=00:23:25.82 bitrate=N/A speed=14.1x    frame=33823 fps=338 q=-0.0 size=N/A time=00:23:30.70 bitrate=N/A speed=14.1x    frame=33971 fps=338 q=-0.0 size=N/A time=00:23:36.87 bitrate=N/A speed=14.1x    frame=34128 fps=337 q=-0.0 size=N/A time=00:23:43.42 bitrate=N/A speed=14.1x    frame=34282 fps=337 q=-0.0 size=N/A time=00:23:49.84 bitrate=N/A speed=14.1x    frame=34404 fps=337 q=-0.0 size=N/A time=00:23:54.93 bitrate=N/A speed=  14x    frame=34574 fps=337 q=-0.0 size=N/A time=00:24:02.02 bitrate=N/A speed=  14x    [Parsed_ssim_16 @ 000001546abf9540] SSIM Y:0.993899 (22.145854) U:0.993797 (22.074028) V:0.993380 (21.791542) All:0.993795 (22.072873)
[out#0/null @ 000001545e27dec0] video:14903KiB audio:271276KiB subtitle:0KiB other streams:0KiB global headers:0KiB muxing overhead: unknown
frame=34683 fps=337 q=-0.0 Lsize=N/A time=00:24:06.57 bitrate=N/A speed=  14x    
